<svg width="23" height="23" viewBox="0 0 23 23" fill="none" xmlns="http://www.w3.org/2000/svg">
<path fill-rule="evenodd" clip-rule="evenodd" d="M10.6868 2.63663C11.136 2.18753 11.8641 2.18753 12.3132 2.63663L20.3632 10.6866C20.6921 11.0155 20.7905 11.5102 20.6125 11.9399C20.4345 12.3696 20.0152 12.6498 19.55 12.6498H18.4V19.5498C18.4 20.1849 17.8851 20.6998 17.25 20.6998H14.95C14.3149 20.6998 13.8 20.1849 13.8 19.5498V16.0998C13.8 15.4647 13.2851 14.9498 12.65 14.9498H10.35C9.71489 14.9498 9.20002 15.4647 9.20002 16.0998V19.5498C9.20002 20.1849 8.68515 20.6998 8.05002 20.6998H5.75002C5.11489 20.6998 4.60002 20.1849 4.60002 19.5498V12.6498H3.45002C2.98489 12.6498 2.56556 12.3696 2.38756 11.9399C2.20956 11.5102 2.30795 11.0155 2.63685 10.6866L10.6868 2.63663Z" fill="#4A9C80"/>
</svg>
