<svg width="23" height="23" viewBox="0 0 23 23" fill="none" xmlns="http://www.w3.org/2000/svg">
<path fill-rule="evenodd" clip-rule="evenodd" d="M10.6868 2.63688C11.1359 2.18777 11.864 2.18777 12.3131 2.63688L20.3631 10.6869C20.692 11.0158 20.7904 11.5104 20.6124 11.9401C20.4344 12.3699 20.0151 12.65 19.55 12.65H18.4V19.55C18.4 20.1852 17.8851 20.7 17.25 20.7H14.95C14.3148 20.7 13.8 20.1852 13.8 19.55V16.1C13.8 15.4649 13.2851 14.95 12.65 14.95H10.35C9.71483 14.95 9.19996 15.4649 9.19996 16.1V19.55C9.19996 20.1852 8.68509 20.7 8.04996 20.7H5.74996C5.11483 20.7 4.59996 20.1852 4.59996 19.55V12.65H3.44996C2.98483 12.65 2.5655 12.3699 2.3875 11.9401C2.2095 11.5104 2.30789 11.0158 2.63679 10.6869L10.6868 2.63688Z" fill="#4A9C80"/>
</svg>
