<svg width="19" height="19" viewBox="0 0 19 19" fill="none" xmlns="http://www.w3.org/2000/svg">
<path d="M9.59041 17.6899C5.07431 17.6899 1.40076 14.0163 1.40076 9.5002C1.40076 4.9841 5.07431 1.31055 9.59041 1.31055C14.1065 1.31055 17.7801 4.9841 17.7801 9.5002C17.7801 14.0163 14.1059 17.6899 9.59041 17.6899ZM9.59041 2.62089C5.79696 2.62089 2.7111 5.70675 2.7111 9.5002C2.7111 13.2937 5.79696 16.3795 9.59041 16.3795C13.3839 16.3795 16.4697 13.2937 16.4697 9.5002C16.4697 5.70675 13.3832 2.62089 9.59041 2.62089ZM9.538 10.103H5.33179C5.15803 10.103 4.99138 10.0339 4.86852 9.91107C4.74565 9.7882 4.67662 9.62155 4.67662 9.44779C4.67662 9.27403 4.74565 9.10738 4.86852 8.98451C4.99138 8.86164 5.15803 8.79262 5.33179 8.79262H8.88283V3.93124C8.88283 3.75747 8.95185 3.59083 9.07472 3.46796C9.19759 3.34509 9.36424 3.27606 9.538 3.27606C9.71176 3.27606 9.87841 3.34509 10.0013 3.46796C10.1241 3.59083 10.1932 3.75747 10.1932 3.93124V9.44779C10.1932 9.62155 10.1241 9.7882 10.0013 9.91107C9.87841 10.0339 9.71176 10.103 9.538 10.103Z" fill="#F76B56"/>
</svg>
